<?xml version="1.0" encoding="UTF-8"?>
<svg id="Layer_1" data-name="Layer 1" xmlns="http://www.w3.org/2000/svg" viewBox="0 0 88 88">
  <defs>
    <style>
      .cls-1 {
        fill: #e1e31a;
      }

      .cls-1, .cls-2 {
        stroke-width: 0px;
      }

      .cls-2 {
        fill: #1f2f54;
      }
    </style>
  </defs>
  <circle class="cls-2" cx="44" cy="44" r="44"/>
  <g>
    <path class="cls-1" d="m19.62,35.1h.81v.11h.38v.16h.27v.11l.27.05v.11h.16v.11h.11v.16h.11c.02.09.04.18.05.27h.11v.27h.16v.54h.11v1.24h.11c.07.15.06.27.06.44,0,.06,0,.12,0,.18q0,.07,0,.14h.11v.59h.11c.08.16.06.31.05.49h.11v.43h.11c.02.12.04.25.05.38h.11v.32h.11c.02.09.04.18.05.27h.11v.27h.11c.02.09.04.18.05.27h.11v.27h.11c.02.07.04.14.05.22h.11v.27h.16v.16h.11v.27h.16v.11h.11v.16h.11c.02.09.04.18.05.27h.11v.11c.05.02.11.04.16.05v.11h.11v.16h.11c.02.07.04.14.05.22h.11v.16h.16v.11h.11v.16h.16v.11h.11v.16h.16v.11h.11v.16h.16v.11h.11v.16h.16v.11h.11v.16h.16v.11h.11v.16h.16v.11h.11v.16h.27v.16h.11v.11h.16v.11c.05.02.11.04.16.05v.11h.11v.11h.16v.16h.11v.11h.16v.16h.22q.09.07.16.16v.11h.16v.11h.11v.16h.16v.11h.11v.16h.16v.11h.11v.16h.27v.16h.11v.11h.16v.11c.05.02.11.04.16.05v.11h.11v.11c.05.02.11.04.16.05v.11h.11v.11h.16v.16h.11v.11h.16v.16h.11v.11h.16v.16h.11v.11h.16v.16h.11v.11h.16v.16h.11v.11h.16v.16h.11v.11h.16v.16h.11v.11c.05.02.11.04.16.05v.11h.11v.11c.05.02.11.04.16.05v.11h.11v.16h.11l.05.22h.11v.16h.16v.11h.11v.16h.11q.09.07.16.16v.22h.16v.16h.11v.16h.11c.02.07.04.14.05.22h.11v.16h.16v.16h.11v.22c.05.02.11.04.16.05v.11h.11v.27h.16v.11h.11v.27h.16v.16h.11v.27h.16v.16h.11v.27h.11c.02.07.04.14.05.22h.11v.27h.16v.27h.11v.16h.11c.02.09.04.18.05.27h.11v.27h.11c.02.12.04.25.05.38h.11v.27c.05.02.11.04.16.05v.27h.11v.38h.16v.38h.11v.43h.16v.43h.11v.54h.11c.07.15.06.27.06.44,0,.06,0,.12,0,.18q0,.07,0,.14h.11v1.4h.11v.54h-.11v1.46h-.11s0,.08,0,.11c0,.05,0,.1,0,.15,0,.05,0,.1,0,.15q0,.13-.06.24h-.11v.43h-.11v.38c-.05.02-.11.04-.16.05v.38h-.11v.27h-.16v.27h-.11v.27h-.16v.27h-.11v.27h-.16v.16h-.11c-.02.09-.04.18-.05.27h-.11v.22c.14.02.28.04.43.05v.11h.38v.11h.27v.16h.43v.11h.38v.16h.43v.11q.09,0,.18,0t.3.06v.11h.43v.11q.1,0,.21,0,.21,0,.33.06v.11h.43v.11c.12.02.25.04.38.05v.11h.16v.11h.11v.16h.27v.27h.16v.11h.11v.27c.05.02.11.04.16.05v.38h.11v.81h-.11q0,.1,0,.21,0,.21-.06.33h-.11v.27h-.11c-.02.12-.04.25-.05.38h-.11v.32h-.11c-.02.12-.04.25-.05.38h-.11v.27h-.11c-.02.12-.04.25-.05.38h-.11v.27h-.11v.16h-.16v.16h-.11v.11h-.16v.16h-.16v.11h-.22c-.02.05-.04.11-.05.16h-.38v.11h-1.08v-.11c-.12-.02-.25-.04-.38-.05v-.11h-.32v-.11c-.09-.02-.18-.04-.27-.05v-.11h-.38v-.11h-.27v-.16h-.38v-.11h-.27c-.02-.05-.04-.11-.05-.16h-.27v-.11c-.12-.02-.25-.04-.38-.05v-.11h-.27v-.11c-.09-.02-.18-.04-.27-.05v-.11h-.27v-.11h-.27v-.16h-.27v-.11h-.27v-.16h-.27v-.11h-.27v-.16h-.27v-.11h-.27v-.16h-.11c-.02.05-.04.11-.05.16h-.11v.11h-.27v.16h-.11v.11h-.27v.16h-.16v.11h-.27v.16h-.27v.11h-.27v.16h-.27v.11h-.27v.11c-.15.07-.27.06-.43.05v.11h-.38v.11c-.17.09-.35.06-.54.05v.11h-.54v.11c-.23.06-.45.06-.69.06-.04,0-.07,0-.11,0-.09,0-.18,0-.27,0v.11h-2v-.11c-.06,0-.12,0-.18,0-.08,0-.16,0-.24,0-.04,0-.08,0-.12,0q-.3,0-.42-.06v-.11h-.7v-.11h-.49c-.02-.05-.04-.11-.05-.16h-.49v-.11q-.08,0-.16,0-.17,0-.28-.06v-.11h-.27v-.11c-.12-.02-.25-.04-.38-.05v-.11h-.32v-.11c-.09-.02-.18-.04-.27-.05v-.11h-.27v-.11h-.27v-.16h-.27v-.11c-.09-.02-.18-.04-.27-.05v-.11h-.27v-.11h-.11v-.16h-.27v-.11c-.09-.02-.18-.04-.27-.05v-.11h-.16v-.11c-.07-.02-.14-.04-.22-.05v-.11h-.16v-.11h-.16v-.16h-.22v-.11h-.16v-.16h-.16v-.11h-.11v-.16h-.27v-.11c-.05-.02-.11-.04-.16-.05v-.11h-.11v-.11c-.05-.02-.11-.04-.16-.05v-.11h-.11v-.11h-.16v-.16h-.11v-.11h-.16v-.16h-.11v-.11h-.16v-.16h-.11v-.11h-.16v-.16h-.11v-.11h-.16v-.16h-.11v-.11c-.05-.02-.11-.04-.16-.05v-.11h-.11v-.16h-.11v-.11h-.16v-.27h-.16v-.11h-.11v-.16h-.16v-.16h-.11v-.22h-.16v-.16h-.11v-.16h-.11l-.05-.22h-.11v-.16h-.16v-.16h-.11v-.22c-.05-.02-.11-.04-.16-.05v-.11h-.11v-.27h-.16v-.16h-.11v-.22c-.05-.02-.11-.04-.16-.05v-.22h-.11v-.16h-.16v-.27h-.11v-.27h-.16v-.16h-.11v-.22c-.05-.02-.11-.04-.16-.05v-.22h-.11v-.27h-.16v-.27h-.11v-.16h-.11c-.02-.09-.04-.18-.05-.27h-.11v-.27h-.11c-.02-.12-.04-.25-.05-.38h-.11v-.27c-.05-.02-.11-.04-.16-.05v-.22h-.11v-.32h-.11c-.02-.12-.04-.25-.05-.38h-.11v-.38c-.05-.02-.11-.04-.16-.05v-.38h-.11v-.38c-.05-.02-.11-.04-.16-.05v-.38h-.11v-.54h-.11c-.09-.17-.06-.35-.05-.54h-.11v-.81h-.11c-.09-.17-.06-.36-.06-.55,0-.04,0-.08,0-.12,0-.1,0-.2,0-.3h-.11v-3.99h.11c0-.06,0-.12,0-.18,0-.08,0-.16,0-.24,0-.04,0-.08,0-.12,0-.19,0-.36.06-.54h.11v-.7h.11s0-.07,0-.11c0-.05,0-.1,0-.15,0-.05,0-.1,0-.15q0-.13.06-.3h.11v-.54h.11v-.49c.05-.02.11-.04.16-.05v-.49h.11c0-.05,0-.1,0-.16q0-.17.06-.28h.11v-.43h.11v-.38h.16v-.38h.11v-.27c.05-.02.11-.04.16-.05v-.38h.11c.02-.12.04-.25.05-.38h.11v-.32h.11c.02-.09.04-.18.05-.27h.11v-.27h.11c.02-.12.04-.25.05-.38h.11v-.27h.11c.02-.09.04-.18.05-.27h.11v-.27h.11c.02-.09.04-.18.05-.27h.11v-.27h.11c.02-.09.04-.18.05-.27h.11v-.27h.11v-.16h.16v-.27h.11c.02-.09.04-.18.05-.27h.11v-.22h.11v-.16h.16v-.27h.11c.02-.09.04-.18.05-.27h.11v-.16h.11q.03-.11.05-.22h.11v-.16h.11v-.27h.16v-.16h.11c.02-.09.04-.18.05-.27h.11v-.11h.11v-.27h.16v-.16h.11q.03-.11.05-.22h.11v-.16h.11c.02-.09.04-.18.05-.27h.11v-.16h.11v-.11h.16v-.27h.11q.03-.08.05-.16h.11v-.11h.11c.02-.09.04-.18.05-.27h.11v-.16h.11v-.11h.16v-.16h.11c.02-.07.04-.14.05-.22h.11v-.16h.11v-.16h.16v-.11h.11c.02-.09.04-.18.05-.27h.11v-.16h.11v-.11h.16v-.16h.11v-.11h.16v-.27h.16v-.11h.11v-.16h.11l.05-.16h.11v-.11h.11l.05-.16h.11v-.11h.11l.05-.16h.11v-.11h.27v-.11c.15-.07.27-.06.43-.05v-.11Zm.27,2.32v.11h-.16v.16h-.11v.11h-.16v.16h-.11l-.05.22h-.11v.16h-.11q-.09.07-.16.16v.11h-.11v.16h-.16v.22h-.11v.16h-.16v.16h-.11v.11h-.16v.27h-.11q-.09.07-.16.16v.11h-.11c-.02.09-.04.18-.05.27h-.11v.16h-.11v.11h-.16v.27h-.11q-.09.07-.16.16v.11h-.11c-.02.09-.04.18-.05.27h-.11v.16h-.11q-.03.11-.05.22h-.11v.16h-.11c-.02.09-.04.18-.05.27h-.11v.16h-.11q-.03.11-.05.22h-.11v.16h-.11c-.02.09-.04.18-.05.27h-.11v.16h-.11q-.01.05-.02.1s-.02.07-.03.11q-.05.03-.11.05v.22h-.11v.16h-.16v.27h-.11c-.02.09-.04.18-.05.27h-.11v.16h-.11q-.01.05-.02.1-.02.06-.03.11s-.07.04-.11.05v.27h-.11q-.01.05-.02.1-.02.06-.03.11s-.07.04-.11.05v.27h-.11q-.01.05-.02.1-.02.06-.03.11s-.07.04-.11.05v.27h-.11q-.01.05-.02.1-.02.06-.03.11s-.07.04-.11.05v.27h-.11q-.01.05-.02.1-.02.06-.03.11s-.07.04-.11.05v.38h-.11c-.02.09-.04.18-.05.27h-.11v.27h-.11c-.02.14-.04.28-.05.43h-.11v.27h-.11v.38h-.16v.43h-.11v.38h-.16v.54h-.11c-.02.14-.04.28-.05.43h-.11v.54h-.11q0,.05,0,.1s0,.09-.01.14c0,.04,0,.09-.01.13,0,.04-.01.07-.02.11-.04.02-.07.04-.11.05v.75h-.11q-.03.43-.05.86h-.11v1.56h-.11v1.4h.11v1.56h.11c.02.27.04.53.05.81h.11v.59h.11c.02.21.04.43.05.65h.11v.38h.11c.02.14.04.28.05.43h.11v.38h.11q.03.21.05.43h.11v.27h.11c.02.12.04.25.05.38h.11v.27s.07.04.11.05q.03.11.05.22h.11v.27s.07.04.11.05q.03.11.05.22h.11v.27s.07.04.11.05q.03.11.05.22h.11v.16h.11c.02.09.04.18.05.27h.11v.27h.16v.27h.11v.16h.11l.05.22h.11v.16h.11c.02.09.04.18.05.27h.11v.27h.16v.11h.11v.27h.16v.16h.11v.16h.11l.05.22h.11v.16h.16v.16h.11v.22h.16v.16h.11v.16h.11v.11h.16v.27h.16v.11h.11v.16h.16v.11h.11v.16h.16v.16h.11v.11h.11q.03.08.05.16h.11v.11h.11q.03.08.05.16h.11v.11h.11q.03.08.05.16h.11v.11h.16v.11h.11v.16h.16v.11h.11v.16h.16v.11c.07.02.14.04.22.05v.11h.16v.11h.16v.16h.22v.11h.16v.16h.16v.11s.07.01.1.02c.04.01.07.02.11.03.02.04.04.07.05.11h.11v.11h.27v.16h.27v.11h.16v.16h.27v.11s.07.01.1.02c.04.01.07.02.11.03.02.04.04.07.05.11h.27v.11c.12.02.25.04.38.05v.11h.27v.11c.12.02.25.04.38.05v.11h.43v.11c.12.02.25.04.38.05v.11h.54v.11c.27.02.53.04.81.05v.11h2.7v-.11c.23-.02.46-.04.7-.05v-.11h.43v-.11c.12-.02.25-.04.38-.05v-.11h.38v-.11c.11-.02.21-.04.32-.05v-.11h.27v-.11c.07-.02.14-.04.22-.05v-.11h.16v-.11c-.09-.02-.18-.04-.27-.05v-.11h-.16v-.11c-.09-.02-.18-.04-.27-.05v-.11h-.11v-.11h-.27v-.16h-.16v-.11q-.05-.01-.1-.02s-.07-.02-.11-.03c-.02-.04-.04-.07-.05-.11h-.11v-.11h-.27v-.16h-.16v-.11c-.07-.02-.14-.04-.22-.05v-.11h-.16v-.11h-.16v-.16h-.22v-.11h-.16v-.16h-.16v-.11c-.07-.02-.14-.04-.22-.05v-.11h-.16v-.11q-.07-.09-.16-.16h-.11v-.11c-.09-.02-.18-.04-.27-.05v-.11h-.11v-.11h-.16v-.16h-.16v-.11h-.11v-.16h-.16v-.11h-.11v-.16h-.27v-.16h-.11v-.11h-.16v-.16h-.11v-.11h-.16v-.16h-.11v-.11h-.16v-.16h-.11l-.05-.22h-.11v-.16h-.16v-.11h-.11v-.16h-.16v-.11h-.11v-.16h-.16v-.16h-.11v-.11h-.11c-.02-.09-.04-.18-.05-.27h-.11v-.11q-.07-.09-.16-.16h-.11v-.16h-.11c-.02-.07-.04-.14-.05-.22h-.11v-.16h-.11c-.02-.09-.04-.18-.05-.27h-.11v-.11s-.07-.04-.11-.05q-.03-.11-.05-.22h-.11v-.16h-.11c-.02-.09-.04-.18-.05-.27h-.11v-.16h-.11c-.02-.07-.04-.14-.05-.22h-.11v-.27s-.07-.04-.11-.05q-.03-.11-.05-.22h-.11v-.27s-.07-.04-.11-.05q-.03-.11-.05-.22h-.11v-.27s-.07-.04-.11-.05q-.03-.14-.05-.27h-.11v-.38h-.16v-.27h-.11v-.43h-.11c-.02-.16-.04-.32-.05-.49h-.11v-.43h-.11c-.02-.21-.04-.43-.05-.65h-.11v-.81h-.11v-2.59h.11v-.27h.11q.09-.07.16-.16v-.11h.11s.04-.07.05-.11q.11-.03.22-.05v-.11h.32v-.11h.92v.11h.27v.11c.09.02.18.04.27.05v.11h.11c.02.05.04.11.05.16h.11v.22s.07.04.11.05q.03.14.05.27h.11v.38h.11c.02.14.04.28.05.43h.11v.38h.16v.27h.11v.27h.11c.02.12.04.25.05.38h.11v.27h.16v.27h.11v.16h.11c.02.09.04.18.05.27h.11v.27h.16v.16h.11v.22s.07.04.11.05q.03.11.05.22h.11v.16h.16v.16h.11v.22q.07.1.16.16h.11v.16h.11l.05.22h.11v.16h.16v.11h.11v.16h.11c.02.05.04.11.05.16h.11v.22h.16v.16h.11v.11h.16v.16h.11v.11h.16v.16h.11v.11h.16v.16h.11v.11h.16v.16h.11v.11h.16v.16h.22c.02.05.04.11.05.16h.11v.11h.16v.11h.11v.16h.16v.11c.07.02.14.04.22.05v.11h.16v.11q.07.09.16.16h.22v.11h.16v.16h.16v.11c.07.02.14.04.22.05v.11h.16v.11c.09.02.18.04.27.05v.11h.16v.11c.07.02.14.04.22.05v.11h.16v.11c.09.02.18.04.27.05v.11h.16v.11q.05.01.1.02s.07.02.11.03c.02.04.04.07.05.11h.22v.11c.09.02.18.04.27.05v.11h.16v.11h.27v.16h.27v.11h.27v.16h.27v.11c.09.02.18.04.27.05v.11h.27v.11h.27v.16h.16v-.11h.11v-.16h.11v-.16h.16v-.27h.11c.02-.07.04-.14.05-.22h.11v-.27h.11c.02-.09.04-.18.05-.27h.11v-.27h.11s.01-.09.02-.13q.02-.07.03-.14s.07-.04.11-.05v-.38h.11c.02-.18.04-.36.05-.54h.11v-.92h.11v-1.78h-.11v-.81h-.11c-.02-.18-.04-.36-.05-.54h-.11v-.54h-.16v-.38h-.11v-.43h-.16v-.27h-.11v-.38s-.07-.04-.11-.05q-.03-.11-.05-.22h-.11v-.27s-.07-.04-.11-.05q-.03-.11-.05-.22h-.11s0-.08.01-.12q0-.15-.08-.24-.08-.07-.2-.06v-.27h-.11c-.02-.09-.04-.18-.05-.27h-.11v-.27h-.16v-.16h-.11v-.22q-.07-.1-.16-.16h-.11v-.27h-.16v-.16h-.11v-.22h-.16v-.16h-.11v-.16h-.11l-.05-.22h-.11v-.16h-.16v-.16h-.11v-.22h-.16v-.16h-.11v-.11q-.07-.09-.16-.16h-.11v-.16h-.11l-.05-.22h-.11v-.16h-.16v-.11h-.11v-.16h-.16v-.11h-.11v-.16h-.16v-.16h-.11v-.11h-.11c-.02-.05-.04-.11-.05-.16h-.11v-.11h-.11c-.02-.05-.04-.11-.05-.16h-.11v-.11h-.11c-.02-.05-.04-.11-.05-.16h-.11v-.11h-.11c-.02-.05-.04-.11-.05-.16h-.11v-.11h-.11v-.11h-.16v-.16h-.16v-.11h-.11v-.16h-.16v-.11h-.11v-.16h-.16v-.11h-.11v-.16h-.16v-.11c-.07-.02-.14-.04-.22-.05v-.11h-.16v-.11q-.07-.09-.16-.16h-.11v-.11q-.07-.09-.16-.16h-.11v-.11h-.16v-.16h-.11v-.11c-.09-.02-.18-.04-.27-.05v-.11h-.11c-.02-.05-.04-.11-.05-.16h-.11v-.11h-.16v-.11h-.11v-.16h-.16v-.11h-.11v-.16h-.16v-.11c-.07-.02-.14-.04-.22-.05v-.11h-.16v-.16h-.11v-.11h-.16v-.11q-.07-.09-.16-.16h-.11v-.11q-.07-.09-.16-.16h-.11v-.11q-.07-.09-.16-.16h-.11v-.11q-.07-.09-.16-.16h-.11v-.11q-.07-.09-.16-.16h-.11v-.16h-.11c-.02-.07-.04-.14-.05-.22h-.11v-.16h-.16v-.11h-.11v-.16h-.16v-.16h-.11v-.11h-.11c-.02-.09-.04-.18-.05-.27h-.11v-.11s-.07-.04-.11-.05q-.03-.11-.05-.22h-.11v-.16h-.16v-.16h-.11v-.22s-.07-.04-.11-.05q-.03-.11-.05-.22h-.11v-.16h-.11c-.02-.09-.04-.18-.05-.27h-.11v-.27h-.16v-.27h-.11v-.27h-.16v-.27h-.11v-.27h-.11c-.02-.12-.04-.25-.05-.38h-.11v-.43h-.16v-.38h-.11v-.43h-.11l-.05-.65h-.11v-.7h-.11c-.02-.36-.04-.71-.05-1.08h-.11v-.38h-.11Zm2.8,23.3v.16h.11v-.16h-.11Zm.16.27v.27h.11v.27h.16v.27h.11v.27h.16v.27h.11v.27h.16v.16h.11v.22s.07.04.11.05q.03.11.05.22h.11v.16h.11c.02.09.04.18.05.27h.11v.11s.07.04.11.05q.03.11.05.22h.11v.16h.16v.11h.11v.16h.11c.02.09.04.18.05.27h.11v.11q.07.09.16.16h.11v.16h.11v.11h.16v.27h.16v.11h.11v.16h.16v.11h.11v.16h.16v.11h.11v.16h.16v.11h.11v.16h.16v.11h.11v.16h.27v.16h.11v.11h.16v.11q.07.09.16.16h.11v.11h.16v.16h.22v.11h.16v.16h.16v.11h.11v.16h.27v.11q.07.09.16.16h.11v.11h.27v.16h.16v.11c.07.02.14.04.22.05v.11h.16v.11c.09.02.18.04.27.05v.11h.16v.11c.07.02.14.04.22.05v.11h.16v.11c.09.02.18.04.27.05v.11h.16v.11q.05.01.1.02s.07.02.11.03c.02.04.04.07.05.11h.22v.11h.16v.16h.27v.11c.09.02.18.04.27.05v.11h.16v.11q.05.01.1.02s.07.02.11.03c.02.04.04.07.05.11h.27v.11q.05.01.1.02s.07.02.11.03c.02.04.04.07.05.11h.22v.11c.09.02.18.04.27.05v.11h.27v.11c.09.02.18.04.27.05v.11h.27v.11c.09.02.18.04.27.05v.11h.27v.11c.09.02.18.04.27.05v.11h.32v.11q.05.01.1.02s.07.02.11.03l.05.11h.27v.11c.12.02.25.04.38.05v.11h.27v.11h.27v.16h.27v.11c.14.02.28.04.43.05v.11h.27v.11h.38v.16h.38c.02-.12.04-.25.05-.38h.11v-.32h.11c.02-.12.04-.25.05-.38h.11v-.27h.11c.02-.12.04-.25.05-.38h.11v-.27c-.12-.02-.25-.04-.38-.05v-.11h-.43v-.11c-.18-.02-.36-.04-.54-.05v-.11h-.38v-.11c-.14-.02-.28-.04-.43-.05v-.11h-.43v-.11h-.38v-.16h-.43v-.11c-.12-.02-.25-.04-.38-.05v-.11h-.27v-.11c-.12-.02-.25-.04-.38-.05v-.11h-.32v-.11c-.12-.02-.25-.04-.38-.05v-.11h-.27v-.11h-.27v-.16h-.38v-.11q-.07-.01-.13-.02s-.09-.02-.14-.03c-.02-.04-.04-.07-.05-.11h-.27v-.11q-.05-.01-.1-.02s-.07-.02-.11-.03c-.02-.04-.04-.07-.05-.11h-.27v-.11q-.05-.01-.1-.02s-.07-.02-.11-.03c-.02-.04-.04-.07-.05-.11h-.27v-.11q-.05-.01-.1-.02s-.07-.02-.11-.03c-.02-.04-.04-.07-.05-.11h-.22v-.11c-.09-.02-.18-.04-.27-.05v-.11h-.16v-.11h-.27v-.16h-.27v-.11h-.16v-.16h-.27v-.11q-.05-.01-.1-.02-.06-.02-.11-.03s-.04-.07-.05-.11h-.11v-.11h-.27v-.16h-.16v-.11q-.05-.01-.1-.02s-.07-.02-.11-.03c-.02-.04-.04-.07-.05-.11h-.11v-.11h-.27v-.16h-.16v-.11q-.11-.03-.22-.05v-.11h-.16v-.11h-.16v-.16h-.22v-.11h-.16v-.16h-.16v-.11h-.11v-.16h-.27v-.11q-.07-.09-.16-.16h-.11v-.11h-.16v-.16h-.11v-.11h-.16v-.16h-.22c-.02-.05-.04-.11-.05-.16h-.11v-.11h-.11v-.11h-.16v-.16h-.16v-.11h-.11v-.16h-.16v-.11h-.11v-.16h-.16v-.16h-.11v-.11h-.11c-.02-.05-.04-.11-.05-.16h-.11v-.22h-.16v-.16h-.11v-.11q-.07-.09-.16-.16h-.11v-.16h-.11l-.05-.22h-.11v-.16h-.16v-.11h-.11v-.27h-.16v-.16h-.11v-.16h-.11l-.05-.22h-.11v-.16h-.11Z"/>
    <path class="cls-1" d="m69.18,36.45h.16v.11s.08,0,.11,0q.07,0,.15,0s.1,0,.15,0q.13,0,.24.06v.11h.27v.11h.16v.16h.27v.16h.11c.02.07.04.14.05.22h.11v.16h.16v.27h.11v.43h.11c.08.17.06.34.06.52,0,.04,0,.08,0,.12,0,.09,0,.19,0,.28h.11v1.08h.11c.06.25.06.49.06.74,0,.04,0,.09,0,.13,0,.1,0,.21,0,.31h.11v1.67h.11c.06.43.06.86.05,1.29h.11v.16h.38v.11h.27c.02.05.04.11.05.16h.22v.11c.09.02.18.04.27.05v.11h.16v.11c.09.02.18.04.27.05v.11h.16v.11c.07.02.14.04.22.05v.11h.16v.11c.05.02.11.04.16.05v.11h.11v.11h.16v.16h.22q.09.07.16.16v.11h.11q.09.07.16.16v.11h.11q.09.07.16.16v.22h.16v.16h.11v.11c.05.02.11.04.16.05v.11h.11v.27h.16v.11h.11v.16h.11c.02.09.04.18.05.27h.11v.16h.11c.02.07.04.14.05.22h.11v.27c.05.02.11.04.16.05v.22h.11v.27c.05.02.11.04.16.05v.22h.11v.27c.05.02.11.04.16.05v.27h.11v.38h.11c.02.12.04.25.05.38h.11v.43h.11c.09.17.06.35.05.54h.11v.65h.11c.06.18.06.33.06.52,0,.06,0,.13,0,.19q0,.07,0,.15h.11v3.61h-.11s0,.1,0,.15q0,.09,0,.19c0,.06,0,.13,0,.19,0,.14-.02.26-.06.39h-.11v.7h-.11v.54h-.16v.54h-.11q0,.1,0,.21t-.06.33h-.11v.38h-.11c0,.05,0,.1,0,.16q0,.17-.06.28h-.11v.38h-.11v.27c-.05.02-.11.04-.16.05v.38h-.11c-.02.12-.04.25-.05.38h-.11v.27h-.11v.27c-.05.02-.11.04-.16.05v.27h-.11v.27h-.16v.38h-.11c-.02.09-.04.18-.05.27h-.11v.27h-.11v.16h-.16v.27h-.11c-.02.09-.04.18-.05.27h-.11v.27h-.11l-.05.22h-.11v.16h-.11v.27h-.16v.27h-.11c-.02.05-.04.11-.05.16h-.11v.22h-.11v.16h-.16v.27h-.11c-.02.05-.04.11-.05.16h-.11v.22c-.09.02-.18.04-.27.05v.11h-.16v.11c-.15.07-.27.06-.44.06-.06,0-.12,0-.18,0-.05,0-.09,0-.14,0-.02-.05-.04-.11-.05-.16h-.27v-.11h-.11v-.16h-.16v-.27h-.11v-.7h.11c.02-.09.04-.18.05-.27h.11v-.22h.11v-.16h.16v-.27h.11v-.16h.16v-.27h.11l.05-.22h.11v-.16h.11v-.27h.16v-.27h.11c.02-.09.04-.18.05-.27h.11v-.16h.11c.02-.09.04-.18.05-.27h.11v-.27h.11c.02-.09.04-.18.05-.27h.11v-.27h.11c.02-.09.04-.18.05-.27h.11v-.38h.11c.02-.09.04-.18.05-.27h.11v-.27h.11c.02-.12.04-.25.05-.38h.11v-.32h.11v-.38h.16v-.43h.11q0-.09,0-.18,0-.2.06-.3h.11v-.43h.11q0-.1,0-.21,0-.21.06-.33h.11v-.65h.11s0-.08,0-.12q0-.08,0-.16c0-.05,0-.11,0-.16,0-.13.02-.24.06-.37h.11v-1.24h.11v-1.62h-.11v-1.19h-.11c-.05-.16-.06-.27-.06-.44,0-.05,0-.1,0-.15q0-.06,0-.11h-.11v-.54h-.16v-.38h-.11v-.43h-.16v-.27h-.11v-.27h-.11c-.02-.12-.04-.25-.05-.38h-.11v-.16h-.11c-.02-.09-.04-.18-.05-.27h-.11v-.27h-.16v-.16h-.11v-.22c-.05-.02-.11-.04-.16-.05v-.11h-.11v-.27h-.16v-.11h-.11v-.16h-.11q-.09-.07-.16-.16v-.22h-.16v-.16h-.11v-.11h-.16v-.16h-.22q-.09-.07-.16-.16v-.11h-.16v-.11h-.11v-.16h-.16v-.11c-.09-.02-.18-.04-.27-.05v-.11h-.11v-.11h-.27v-.16h-.11q0,.07,0,.13c0,.2,0,.4,0,.6,0,.07,0,.14,0,.21q0,.1,0,.2,0,.09,0,.19c0,.19-.03.37-.06.56h-.11v1.35h-.11c0,.06,0,.13,0,.19,0,.08,0,.17,0,.25,0,.04,0,.08,0,.13q0,.06,0,.12s0,.08,0,.11q0,.1-.06.26h-.11v.81h-.11s0,.08,0,.11q0,.07,0,.15s0,.1,0,.15q0,.13-.06.24h-.11v.7h-.11v.38c-.05.02-.11.04-.16.05v.54h-.11q0,.09,0,.18,0,.2-.06.3h-.11v.43h-.11c-.02.12-.04.25-.05.38h-.11v.32h-.11c-.02.12-.04.25-.05.38h-.11v.38h-.11c-.02.11-.04.21-.05.32h-.11v.27h-.11c-.02.09-.04.18-.05.27h-.11v.27h-.11c-.02.09-.04.18-.05.27h-.11v.27h-.11c-.02.09-.04.18-.05.27h-.11v.22h-.11v.16h-.16v.27h-.11v.16h-.16v.27h-.11v.11h-.16v.27h-.11c-.02.05-.04.11-.05.16h-.11v.22q-.07.09-.16.16h-.11v.16h-.11v.11h-.16v.16h-.11v.11h-.16v.27h-.16v.11h-.11v.16h-.16v.11h-.11v.16h-.16v.11h-.11v.16h-.27v.16h-.11v.11h-.16v.16h-.11v.11h-.16v.11c-.09.02-.18.04-.27.05v.11h-.11c-.02.05-.04.11-.05.16h-.22v.11h-.16v.16h-.27v.11h-.11c-.02.05-.04.11-.05.16h-.22v.11h-.27v.16h-.27v.11h-.97v-.11h-.27v-.16h-.27v-.11c-.05-.02-.11-.04-.16-.05v-.11h-.11v-.27h-.16v-.27h-.11v-.97h.11v-.27h.16v-.27h.11v-.11h.16v-.16h.11v-.11h.16v-.16h.11l.05-.22h.11v-.16h.11c.02-.05.04-.11.05-.16h.11v-.22h.11v-.16h.16v-.16h.11l.05-.22h.11v-.16h.11c.02-.09.04-.18.05-.27h.11v-.16h.11c.02-.09.04-.18.05-.27h.11v-.27h.11l.05-.22h.11v-.27h.11c.02-.09.04-.18.05-.27h.11v-.27h.11c.02-.11.04-.21.05-.32h.11v-.27h.11c.02-.12.04-.25.05-.38h.11v-.27h.11v-.38c.05-.02.11-.04.16-.05v-.38h.11q0-.1,0-.21,0-.21.06-.33h.11v-.54h.11q0-.1,0-.21,0-.21.06-.33h.11v-.65h.11s0-.1,0-.15q0-.1,0-.19c0-.06,0-.13,0-.19q0-.16.06-.27h.11v-1.08h.11v-5.28h-.49v-.11h-1.13v.11h-1.02c-.02.05-.04.11-.05.16h-.49v.11h-.43v.16h-.27v.11h-.38c-.02.05-.04.11-.05.16h-.22v.11h-.27v.16h-.16v.11h-.27v.16h-.16v.11h-.22c-.02.05-.04.11-.05.16h-.11v.11h-.27v.16h-.11v.11h-.16v.16h-.11v.11h-.16v.16h-.11v.11h-.16v.11h-.11v.16h-.16v.16h-.11v.11h-.16v.16h-.11v.11h-.16v.27h-.11c-.02.05-.04.11-.05.16h-.11v.11h-.11v.16h-.16v.27h-.11v.11h-.16v.27h-.11v.16h-.16v.27h-.11l-.05.22h-.11v.16h-.11v.27h-.16v.27h-.11v.27h-.16v.27h-.11c-.02.09-.04.18-.05.27h-.11v.27h-.11v.27h-.16v.38h-.11c-.02.09-.04.18-.05.27h-.11v.32h-.11c-.02.12-.04.25-.05.38h-.11v.27h-.11v.38c-.05.02-.11.04-.16.05v.38h-.11v.38c-.05.02-.11.04-.16.05v.38h-.11q0,.1,0,.21,0,.21-.06.33h-.11v.54h-.11v.38c-.05.02-.11.04-.16.05v.65h-.11q0,.1,0,.21,0,.21-.06.33h-.11v.65h-.11s0,.07,0,.11c0,.05,0,.1,0,.15,0,.05,0,.1,0,.15q0,.13-.06.3h-.11v.65h-.11q0,.1,0,.21c0,.15,0,.24-.06.39h-.11v.65h-.11s0,.07,0,.11c0,.05,0,.1,0,.15,0,.05,0,.1,0,.15q0,.13-.06.3h-.11v.54h-.11s0,.07,0,.1c0,.04,0,.09,0,.13,0,.04,0,.09,0,.13q0,.12-.06.28h-.11v.43h-.11q0,.09,0,.18,0,.2-.06.3h-.11v.43h-.11v.38c-.05.02-.11.04-.16.05v.38h-.11c-.02.12-.04.25-.05.38h-.11v.32h-.11c-.02.09-.04.18-.05.27h-.11v.38h-.11v.16h-.16v.27h-.11l-.05.27h-.11v.27h-.11c-.02.07-.04.14-.05.22h-.11v.16h-.11v.27h-.16v.16h-.11c-.02.07-.04.14-.05.22h-.11v.16h-.11v.16h-.16v.22h-.11v.16h-.16v.16h-.11v.11h-.16v.16h-.11v.11h-.16v.16h-.11v.11h-.16v.16h-.11v.11h-.16v.16h-.11v.11h-.16v.16h-.11v.11h-.16v.16h-.16v.11h-.22v.16h-.16v.11h-.11c-.02.05-.04.11-.05.16h-.11v.11h-.27v.16h-.16v.11h-.11v.11q.09,0,.18,0,.2,0,.36.06v.11h.7v.11s.09,0,.14,0q.09,0,.18,0c.06,0,.12,0,.18,0q.16,0,.32.06v.11h.92v.11q.08,0,.17,0c.07,0,.15,0,.22,0,.04,0,.07,0,.11,0,.2,0,.39.01.58.06v.11h1.35v.11h5.5v-.11h1.24v-.11c.22-.05.42-.06.64-.06.06,0,.13,0,.19,0q.07,0,.14,0v-.11h.75v-.11c.15-.05.24-.06.39-.06.07,0,.14,0,.21,0v-.11h.65v-.16h.43v-.11h.49c.02-.05.04-.11.05-.16h.38v-.11h.38v-.11c.14-.02.28-.04.43-.05v-.11h.27v-.11c.12-.02.25-.04.38-.05v-.11h.32v-.11c.12-.02.25-.04.38-.05v-.11h.27v-.16h.27v-.11h.27v-.16h.27v-.11h.16v-.11c.07-.02.14-.04.22-.05v-.11h.27c.02-.05.04-.11.05-.16h.11v-.11h.27v-.16h.27v-.11h.11c.02-.05.04-.11.05-.16h.11v-.11h.27v-.16h.11v-.11h.16v-.11c.09-.02.18-.04.27-.05v-.11h.11c.02-.05.04-.11.05-.16h.11v-.11h.43v-.11h.27v.11h.38v.11h.16v.16h.11v.11h.16v.16h.11v.81h-.11c-.02.09-.04.18-.05.27h-.11v.16h-.11v.11h-.16v.11c-.09.02-.18.04-.27.05v.11h-.11c-.02.05-.04.11-.05.16h-.11v.11h-.27v.16h-.11v.11h-.16v.11c-.09.02-.18.04-.27.05v.11h-.16v.11c-.07.02-.14.04-.22.05v.11h-.27v.16h-.16v.11h-.27v.16h-.27v.11h-.27v.16h-.27v.11h-.27v.16h-.27v.11h-.27v.16h-.27v.11h-.27v.11c-.12.02-.25.04-.38.05v.11h-.27v.11c-.14.02-.28.04-.43.05v.11h-.38c-.02.05-.04.11-.05.16h-.38v.11h-.38c-.02.05-.04.11-.05.16h-.38v.11h-.54v.11c-.17.09-.35.06-.54.05v.11h-.65v.11c-.16.05-.27.06-.44.06-.05,0-.1,0-.15,0q-.06,0-.11,0v.11h-.81v.11c-.2.07-.37.06-.58.06-.04,0-.08,0-.11,0-.09,0-.19,0-.28,0v.11h-1.46v.11c-.49.05-.99.06-1.48.06-.07,0-.15,0-.22,0-.15,0-.3,0-.45,0-.19,0-.38,0-.58,0-.15,0-.3,0-.45,0-.1,0-.21,0-.31,0-.37,0-.73-.02-1.09-.06v-.11h-1.62v-.11c-.07,0-.14,0-.2,0-.09,0-.18,0-.27,0-.04,0-.09,0-.13,0-.04,0-.09,0-.13,0-.04,0-.08,0-.12,0-.12,0-.22-.03-.33-.06v-.11h-.97v-.11s-.09,0-.14,0q-.09,0-.18,0c-.06,0-.12,0-.18,0q-.16,0-.32-.06v-.11h-.81v-.11q-.1,0-.21,0-.21,0-.33-.06v-.11h-.7v-.11h-.38v-.16h-.27v-.11h-.16v-.16h-.11v-.11h-.16v-.16h-.11v-.16h-.11c-.02-.09-.04-.18-.05-.27h-.11v-.38h-.11c-.05-.16-.06-.27-.06-.43,0-.05,0-.09,0-.14q0-.12.06-.23h.11v-.43h.11l.05-.27h.11v-.22h.11v-.16h.16v-.16h.16v-.11h.22c.02-.05.04-.11.05-.16h.11v-.11h.27v-.16h.11v-.11h.16v-.11c.09-.02.18-.04.27-.05v-.11h.11c.02-.05.04-.11.05-.16h.11v-.11h.16v-.11h.11v-.16h.16v-.11h.11v-.16h.27v-.27h.16v-.11h.11v-.16h.16v-.11h.11v-.16h.11c.02-.05.04-.11.05-.16h.11v-.11h.11l.05-.27h.11v-.16h.11c.02-.07.04-.14.05-.22h.11v-.16h.11l.05-.27h.11v-.16h.11l.05-.27h.11v-.27h.11l.05-.27h.11v-.27h.11c.02-.12.04-.25.05-.38h.11v-.27h.11c.02-.14.04-.28.05-.43h.11v-.38h.11v-.38c.05-.02.11-.04.16-.05v-.49h.11c0-.07,0-.14,0-.21q0-.21.06-.33h.11v-.59h.11v-.49c.05-.02.11-.04.16-.05v-.65h.11s0-.07,0-.11c0-.05,0-.1,0-.15,0-.05,0-.1,0-.15q0-.13.06-.3h.11v-.65h.11s0-.08,0-.11c0-.05,0-.1,0-.15,0-.05,0-.1,0-.15q0-.13.06-.24h.11v-.7h.11q0-.1,0-.21,0-.21.06-.33h.11v-.65h.11q0-.1,0-.21,0-.21.06-.33h.11v-.54h.11v-.43h.16v-.54h.11c.02-.12.04-.25.05-.38h.11v-.43h.11v-.38c.05-.02.11-.04.16-.05v-.38h.11c.02-.12.04-.25.05-.38h.11v-.32h.11c.02-.12.04-.25.05-.38h.11v-.27h.11v-.27h.16v-.38h.11c.02-.09.04-.18.05-.27h.11v-.32h.11c.02-.09.04-.18.05-.27h.11v-.27h.11c.02-.07.04-.14.05-.22h.11v-.27h.11v-.16h.16v-.27h.11v-.27h.16v-.27h.11c.02-.05.04-.11.05-.16h.11v-.22h.11v-.16h.16v-.27h.11c.02-.05.04-.11.05-.16h.11v-.22h.11v-.16h.16v-.16h.11v-.11h.16v-.27h.11c.02-.05.04-.11.05-.16h.11v-.11h.11c.02-.05.04-.11.05-.16h.11v-.11h.11v-.16h.16v-.11h.11v-.16h.16v-.11h.11v-.16h.16v-.11h.11c.02-.05.04-.11.05-.16h.11v-.11h.11c.02-.05.04-.11.05-.16h.11v-.11h.27v-.16h.11v-.11h.16v-.11c.09-.02.18-.04.27-.05v-.11h.16v-.11c.07-.02.14-.04.22-.05v-.11h.27v-.16h.16v-.11h.27v-.11c.09-.02.18-.04.27-.05v-.11h.38c.02-.05.04-.11.05-.16h.22v-.11h.43v-.16h.38v-.11h.54v-.11c.16-.05.27-.06.44-.06.05,0,.1,0,.15,0q.06,0,.11,0v-.11h2.26v-.16h-.11v-.75h-.11c-.05-.16-.06-.27-.06-.44,0-.05,0-.1,0-.15q0-.06,0-.11h-.11v-.7h-.11c-.07-.14-.06-.23-.06-.38,0-.05,0-.1,0-.15q0-.06,0-.11h-.11v-.54h-.16v-.43h-.11v-.65h-.11v-.38h.11v-.59h.11c.02-.09.04-.18.05-.27h.11v-.22h.11v-.16h.16v-.16h.11v-.11h.27v-.16h.16v-.11h.38v-.11c.18-.06.31-.06.5-.06q.09,0,.18,0s.09,0,.14,0v-.11h.86v-.11c.21-.07.42-.06.63-.06.04,0,.08,0,.11,0,.09,0,.18,0,.28,0v-.11Zm-.27,2.16v.11q-.45.03-.92.05v.11h-.92v.27h.11v.54h.11c.02.18.04.36.05.54h.11v.54h.11l.05.65h.11v.7h.11c.02.23.04.46.05.7h.11v.92h.11c.02.36.04.71.05,1.08h.11v1.46h.11v4.48h-.11v1.24h-.11c-.02.3-.04.61-.05.92h-.11v.81h-.11v.54h-.16v.65h-.11c-.02.18-.04.36-.05.54h-.11v.43h-.11l-.05.43h-.11v.38h-.11c-.02.12-.04.25-.05.38h-.11v.32h-.11c-.02.12-.04.25-.05.38h-.11v.27h-.11v.27h-.16v.27h-.11v.27h.11v-.16h.11v-.11h.16v-.27h.11v-.16h.16v-.27h.11v-.11h.16v-.27h.11v-.27h.16v-.27h.11c.02-.09.04-.18.05-.27h.11v-.27h.11c.02-.09.04-.18.05-.27h.11v-.27h.11v-.27h.16v-.38h.11c.02-.14.04-.28.05-.43h.11v-.27h.11c.02-.18.04-.36.05-.54h.11v-.38h.11c.02-.18.04-.36.05-.54h.11v-.54h.11c.02-.2.04-.39.05-.59h.11v-.75h.11c.02-.32.04-.64.05-.97h.11v-1.08h.11c0-.23.02-.46.02-.69,0-.08,0-.16,0-.23.02-.56.03-1.11.02-1.67h.11v-1.29h-.11s0-.1,0-.15c0-.87-.03-1.73-.06-2.6h-.11v-1.46h-.11c-.02-.39-.04-.78-.05-1.19h-.11v-.97h-.11q-.03-.13-.05-.27h-.27Zm-2.8,20.22v.27h.11v-.27h-.11Zm-.11.27v.11h.11v-.11h-.11Z"/>
    <path class="cls-1" d="m43.42,11.74c.07,0,.15,0,.22,0,.16,0,.31,0,.47,0,.2,0,.4,0,.6,0,.15,0,.31,0,.46,0,.11,0,.22,0,.33,0,.07,0,.13,0,.2,0h.18c.19,0,.37.03.55.06v.11h1.24v.11s.09,0,.14,0c.06,0,.12,0,.18,0,.06,0,.12,0,.18,0q.16,0,.32.06v.11h.65v.11h.54v.16h.54v.11h.38c.02.05.04.11.05.16h.38v.11h.38c.02.05.04.11.05.16h.38v.11h.27v.16h.38v.11q.13.03.27.05v.11h.32v.11q.13.03.27.05v.11h.27v.11l.22.05v.11h.27v.11h.16v.16h.27v.11q.13.03.27.05v.11h.16v.11l.22.05v.11h.16v.11q.13.03.27.05v.11h.16v.11c.07.02.14.04.22.05v.11h.16v.11h.16v.16h.22v.11h.16v.16h.16v.11h.11v.16h.27v.16h.11v.11h.16v.11c.05.02.11.04.16.05v.11h.11v.11h.16v.16h.11v.11h.16v.16h.11v.11h.16v.16h.11v.11h.16v.16h.11v.11h.16v.16h.11v.11h.16v.16h.11v.11h.16v.16h.11v.11c.05.02.11.04.16.05v.11h.11v.16h.11c.02.07.04.14.05.22h.11v.16h.16v.11h.11v.16h.16v.16h.11v.22h.16v.16h.11v.16h.11c.02.07.04.14.05.22h.11v.16h.16v.16h.11v.22c.05.02.11.04.16.05v.11h.11v.27h.16v.11h.11v.27h.16v.16h.11v.27h.16v.16h.11v.22c.05.02.11.04.16.05v.22h.11v.16h.16v.27h.11v.27h.16v.16h.11v.22c.05.02.11.04.16.05v.22h.11v.27h.16v.16h.11v.27h.11c.02.09.04.18.05.27h.11v.27h.11c.02.09.04.18.05.27h.11v.27h.11c.02.09.04.18.05.27h.11v.38c.05.02.11.04.16.05v.22h.11v.27c.05.02.11.04.16.05v.27h.11v.27h.11c.02.12.04.25.05.38h.11v.27h.11c.02.12.04.25.05.38h.11v.32h.11c.02.12.04.25.05.38h.11v.27h.11c.02.14.04.28.05.43h.11v.38h.16v.38h.11v.43h.16v.38h.11v1.35h-.11v.27c-.05.02-.11.04-.16.05v.22h-.11v.16h-.16v.16h-.11v.11h-.27v.16h-.16v.11h-.38v.11c-.19.06-.37.06-.57.06-.04,0-.07,0-.11,0q-.28,0-.4-.06v-.11h-.43v-.11c-.09-.02-.18-.04-.27-.05v-.11h-.27v-.11h-.27v-.16h-.38v-.11h-.27c-.02-.05-.04-.11-.05-.16h-.38v-.11c-.06,0-.12,0-.18,0q-.2,0-.36-.06v-.11h-.54v-.11q-.06,0-.11,0t-.15,0-.15,0-.24-.06v-.11h-3.4v.11c-.18.06-.31.06-.5.06-.06,0-.12,0-.18,0q-.07,0-.14,0v.11h-.54v.11c-.19.06-.34.06-.54.05v.11h-.54v.11c-.15.07-.27.06-.43.05v.11h-.49c-.02.05-.04.11-.05.16h-.38v.11h-.38c-.02.05-.04.11-.05.16h-.38v.11h-.38c-.02.05-.04.11-.05.16h-.38v.11h-.38c-.02.05-.04.11-.05.16h-.38v.11h-.38c-.02.05-.04.11-.05.16h-.38v.11h-.38v.11c-.14.02-.28.04-.43.05v.11h-.54v.16h-.43v.11h-.49v.11c-.19.06-.34.06-.54.05v.11h-.54v.11c-.15.05-.24.06-.39.06-.07,0-.14,0-.21,0v.11h-.75v.11c-.18.06-.31.06-.5.06-.06,0-.12,0-.18,0-.04,0-.09,0-.14,0v.11h-1.08v.11c-.22.05-.43.06-.66.06-.04,0-.07,0-.11,0-.08,0-.15,0-.23,0-.12,0-.24,0-.35,0-.07,0-.15,0-.22,0-.07,0-.14,0-.21,0q-.16,0-.27-.06v-.11h-.16v-.11h-.11v-.16h-.16v-.27h-.11v-.65h.11v-.27c.05-.02.11-.04.16-.05v-.11h.11c.02-.05.04-.11.05-.16h.22v-.11h.86v-.11c.3-.05.58-.06.89-.06q.07,0,.14,0c.11,0,.22,0,.33,0v-.11h.92v-.11c.27-.07.53-.06.81-.05v-.11h.65v-.11c.15-.05.24-.06.39-.06.07,0,.14,0,.21,0v-.11h.49v-.11c.19-.06.34-.06.54-.05v-.11h.43v-.11c.17-.09.35-.06.54-.05v-.11h.38c.02-.05.04-.11.05-.16h.38v-.11h.38c.02-.05.04-.11.05-.16h.38v-.11h.38v-.11c.14-.02.28-.04.43-.05v-.11h.38v-.11c.14-.02.28-.04.43-.05v-.11h.38v-.11c.14-.02.28-.04.43-.05v-.11h.43v-.11c.12-.02.25-.04.38-.05v-.11h.54v-.11c.15-.07.27-.06.43-.05v-.11h.54v-.11c.14-.07.23-.06.38-.06.05,0,.1,0,.15,0q.06,0,.11,0v-.11h.7v-.11c.18-.09.38-.06.57-.06.04,0,.09,0,.13,0,.11,0,.21,0,.32,0v-.11h2.75v.11c.05,0,.11,0,.16,0,.07,0,.14,0,.21,0,.07,0,.14,0,.21,0q.18,0,.34.06v.11h.65v.11q.1,0,.21,0,.21,0,.33.06v.11h.43v.11c.14.02.28.04.43.05v.11h.38v.11h.27v.16h.38v.11c.11.02.21.04.32.05v.11h.27v.11h.11v-.38h-.16v-.38h-.11v-.43h-.16v-.27h-.11v-.43h-.11c-.02-.12-.04-.25-.05-.38h-.11v-.27h-.11c-.02-.12-.04-.25-.05-.38h-.11v-.32h-.11c-.02-.12-.04-.25-.05-.38h-.11v-.27h-.16v-.27h-.11v-.27h-.11c-.02-.12-.04-.25-.05-.38h-.11v-.27c-.05-.02-.11-.04-.16-.05v-.22h-.11v-.27c-.05-.02-.11-.04-.16-.05v-.22h-.11v-.27c-.05-.02-.11-.04-.16-.05v-.22h-.11v-.27c-.05-.02-.11-.04-.16-.05v-.22h-.11v-.16h-.11c-.02-.09-.04-.18-.05-.27h-.11v-.27h-.16v-.27h-.11v-.16h-.11c-.02-.07-.04-.14-.05-.22h-.11v-.27h-.16v-.16h-.11v-.27h-.16v-.16h-.11v-.22c-.05-.02-.11-.04-.16-.05v-.11h-.11v-.27h-.16v-.16h-.11v-.22h-.16v-.16h-.11v-.16h-.11c-.02-.07-.04-.14-.05-.22h-.11v-.16h-.16v-.16h-.11v-.22h-.16v-.16h-.11v-.11c-.05-.02-.11-.04-.16-.05v-.11h-.11v-.27h-.16v-.11h-.11v-.16h-.16v-.11h-.11v-.16h-.16v-.16h-.11v-.11h-.11q-.09-.07-.16-.16v-.11h-.11q-.09-.07-.16-.16v-.11h-.11q-.09-.07-.16-.16v-.11h-.11q-.09-.07-.16-.16v-.11h-.11v-.11h-.16v-.16h-.16v-.11h-.11v-.16h-.16v-.11h-.11v-.16h-.27v-.11c-.05-.02-.11-.04-.16-.05v-.11h-.11v-.11h-.16v-.16h-.22v-.11h-.16v-.16h-.16v-.11q-.13-.03-.27-.05v-.11h-.11v-.11h-.27v-.16h-.16v-.11q-.13-.03-.27-.05v-.11h-.22v-.11h-.16v-.16h-.27v-.11h-.27v-.16h-.27v-.11h-.27v-.16h-.27v-.11c-.12-.02-.25-.04-.38-.05v-.11h-.27v-.11h-.27c-.02-.05-.04-.11-.05-.16h-.38v-.11q-.21-.03-.43-.05v-.11h-.38v-.11q-.1,0-.21,0-.21,0-.33-.06v-.11h-.54v-.11s-.07,0-.11,0q-.47,0-.7-.06v-.11h-.92v-.11h-5.12v.11h-1.08v.11c-.18.06-.31.06-.5.06q-.09,0-.18,0s-.09,0-.14,0v.11h-.7v.16h-.54v.11h-.43v.11c-.16.08-.31.06-.49.05v.11h-.43v.16h-.38v.11h-.32v.11q-.19.03-.38.05v.11h-.27v.16h-.27v.11h-.27v.16h-.27v.11h-.27v.16h-.16v.11h-.27v.11c-.07.02-.14.04-.22.05v.11h-.16v.11q-.13.03-.27.05v.11h-.11c-.02.05-.04.11-.05.16h-.11v.11h-.27v.16h-.11v.11h-.16v.11q-.07.09-.16.16h-.22v.16h-.16v.11h-.11v.16h-.16v.11h-.11v.16h-.16v.22q-.07.09-.16.16h-.11v.16h-.11v.11h-.16v.16h-.11c-.02.07-.04.14-.05.22h-.11v.16h-.11c-.02.09-.04.18-.05.27h-.11v.16h-.11c-.02.09-.04.18-.05.27h-.11v.27h-.11c-.02.09-.04.18-.05.27h-.11v.27h-.11c-.02.12-.04.25-.05.38h-.11v.27h-.11q0,.09,0,.18,0,.2-.06.36h-.11v.54h-.11s0,.09,0,.14c0,.32,0,.62-.06.94h-.11v.54h.27v-.16h.27v-.11h.16v-.11c.09-.02.18-.04.27-.05v-.11h.27v-.11c.09-.02.18-.04.27-.05v-.11h.27v-.11c.09-.02.18-.04.27-.05v-.11h.38v-.16h.27v-.11h.27v-.11c.09-.02.18-.04.27-.05v-.11h.38c.02-.05.04-.11.05-.16h.27v-.11h.38v-.11c.12-.02.25-.04.38-.05v-.11h.43v-.16h.38v-.11h.43v-.16h.43v-.11h.49v-.11c.19-.06.34-.06.54-.05v-.11h.59v-.11c.16-.08.29-.06.47-.06.06,0,.13,0,.19,0q.07,0,.15,0v-.11h.92v-.11c.18-.06.32-.06.51-.06.03,0,.07,0,.11,0,.12,0,.23,0,.35,0,.08,0,.16,0,.24,0,.17,0,.34,0,.5,0,.22,0,.43,0,.65,0,.17,0,.33,0,.5,0,.08,0,.16,0,.24,0,.11,0,.22,0,.33,0,.06,0,.13,0,.19,0,.15,0,.29.03.44.06v.11h.81v.11h.54v.16h.54v.11q.1,0,.21,0,.21,0,.33.06v.11h.38v.11h.27c.02.05.04.11.05.16h.38v.11c.09.02.18.04.27.05v.11h.27v.11h.27v.16h.27v.11c.09.02.18.04.27.05v.11h.27v.11c.05.02.11.04.16.05v.11h.11v.11h.16v.16h.11v.16h.11c.02.12.04.25.05.38h.11v.65h-.11q0,.08,0,.16,0,.17-.06.28h-.11v.27h-.11c-.02.05-.04.11-.05.16h-.11v.11h-.16v.11c-.09.02-.18.04-.27.05v.11h-1.46v-.11s-.07,0-.11,0q-.47,0-.7-.06v-.11h-1.62v-.11h-.81v.11h-1.73v.11c-.18.06-.33.06-.52.06-.06,0-.13,0-.19,0-.05,0-.1,0-.15,0v.11h-.65v.11c-.17.09-.35.06-.54.05v.11h-.54v.11c-.15.07-.27.06-.43.05v.11h-.38v.11c-.15.07-.27.06-.43.05v.11h-.38v.16h-.38v.11h-.27c-.02.05-.04.11-.05.16h-.27v.11h-.38v.16h-.27v.11h-.27v.16h-.27v.11h-.27v.16h-.27v.11h-.27v.16h-.27v.11h-.16v.11c-.07.02-.14.04-.22.05v.11h-.27c-.02.05-.04.11-.05.16h-.11v.11h-.27v.16h-.27v.11h-.16v.11c-.07.02-.14.04-.22.05v.11h-.16v.11c-.09.02-.18.04-.27.05v.11h-.16v.11c-.07.02-.14.04-.22.05v.11h-.16v.11c.05.02.11.04.16.05v.22h.11v.27c.05.02.11.04.16.05v.22h.11v.27h.16v.16h.11v.27h.16v.11h.11v.16h.11q.09.07.16.16v.22h.16v.16h.11v.11h.16v.16h.11v.11h.16v.16h.22v.11h.16v.16h.16v.11c.07.02.14.04.22.05v.11h.16v.11c.09.02.18.04.27.05v.11h.27v.11h.16v.16h.38v.11c.09.02.18.04.27.05v.11h.27v.11h.38c.02.05.04.11.05.16h.49v.11q.08,0,.16,0,.17,0,.28.06v.11h.27v.16h.11l.05.22h.11v.32h.11v.38h-.11v.38h-.11v.16h-.16v.16h-.16v.11h-1.19v-.11c-.14-.02-.28-.04-.43-.05v-.11h-.38v-.11c-.12-.02-.25-.04-.38-.05v-.11h-.32v-.11c-.09-.02-.18-.04-.27-.05v-.11h-.27v-.11c-.09-.02-.18-.04-.27-.05v-.11h-.27v-.11c-.07-.02-.14-.04-.22-.05v-.11h-.16v-.11c-.09-.02-.18-.04-.27-.05v-.11h-.16v-.11c-.07-.02-.14-.04-.22-.05v-.11h-.16v-.11c-.05-.02-.11-.04-.16-.05v-.11h-.11v-.11c-.09-.02-.18-.04-.27-.05v-.11h-.11q-.09-.07-.16-.16v-.11h-.11q-.09-.07-.16-.16v-.11h-.11c-.02-.09-.04-.18-.05-.27h-.11v-.11h-.16v-.16h-.11v-.16h-.11l-.05-.22h-.11v-.16h-.16v-.16h-.11v-.22c-.05-.02-.11-.04-.16-.05v-.22h-.11v-.27h-.16v-.16h-.11v-.27h-.16v.11c-.07.02-.14.04-.22.05v.11h-.16v.16h-.11v.11h-.16v.11c-.09.02-.18.04-.27.05v.11h-.11v.16h-.16v.11h-.11c-.02.05-.04.11-.05.16h-.11v.11h-.11c-.02.05-.04.11-.05.16h-.11v.11h-.16v.11h-.11v.16h-.27v.16h-.11v.11h-.16v.16h-.11v.11h-.16v.16h-.11v.11h-.16v.16h-.11v.11h-.16v.16h-.16v.11h-.27v.11c-.12.02-.25.04-.38.05v.11h-.81v-.11q-.1,0-.21,0-.21,0-.33-.06v-.11h-.16v-.11c-.09-.02-.18-.04-.27-.05v-.11h-.11v-.11c-.05-.02-.11-.04-.16-.05v-.11h-.11v-.16h-.11q-.03-.11-.05-.22h-.11v-.16h-.16v-.11h-.11v-.16h-.11c-.02-.09-.04-.18-.05-.27h-.11v-.11c-.05-.02-.11-.04-.16-.05v-.11h-.11v-.16h-.11c-.02-.07-.04-.14-.05-.22h-.11v-.16h-.16v-.27h-.11v-.27h-.11c-.06-.12-.06-.19-.06-.33,0-.04,0-.09,0-.13q0-.07,0-.14s0-.09,0-.13c0-.04,0-.09,0-.13,0-.04,0-.08,0-.12q0-.11.06-.27h.11v-.27h.11c.02-.09.04-.18.05-.27h.11v-.22q.07-.09.16-.16h.11v-.11c.09-.02.18-.04.27-.05v-.11h.11c.02-.05.04-.11.05-.16h.11v-.11h.27v-.16h.11v-.11h.16v-.16h.16v-.11h.22v-.16h.16v-.11h.16v-.11c.07-.02.14-.04.22-.05v-.11h.16v-.16h.27v-.11h.11c.02-.05.04-.11.05-.16h.11v-.11h.27v-.16h.16v-.11h.22v-.16h.16v-.11h.27v-.16h.11v-.11h.27v-.16h.16v-.11h.27v-.16h.11v-.11h.27v-.16h.16v-.11h-.11c-.05-.15-.06-.23-.06-.39,0-.04,0-.09,0-.14q0-.07,0-.15s0-.1,0-.15c0-.1,0-.21,0-.31,0-.16,0-.32,0-.48,0-.1,0-.2,0-.31,0-.05,0-.1,0-.15q0-.07,0-.14s0-.08,0-.12q0-.1.06-.27h.11v-.75h.11c0-.07,0-.14,0-.21q0-.21.06-.33h.11v-.43h.11c.02-.12.04-.25.05-.38h.11v-.32h.11c.02-.12.04-.25.05-.38h.11v-.27h.11c.02-.09.04-.18.05-.27h.11v-.27h.11v-.16h.16v-.27h.11c.02-.07.04-.14.05-.22h.11v-.16h.11c.02-.09.04-.18.05-.27h.11v-.16h.11v-.11h.16v-.27h.11c.02-.05.04-.11.05-.16h.11v-.11h.11v-.16h.16v-.11h.11c.02-.09.04-.18.05-.27h.11v-.11q.07-.09.16-.16h.11v-.11q.07-.09.16-.16h.11v-.11q.13-.03.27-.05v-.11h.11v-.16h.16v-.11h.11c.02-.05.04-.11.05-.16h.11v-.11h.27v-.16h.11v-.11h.16v-.11q.13-.03.27-.05v-.11h.16v-.11l.22-.05v-.11h.16v-.11q.13-.03.27-.05v-.11h.27v-.16h.16v-.11h.27v-.11q.13-.03.27-.05v-.11h.27v-.11q.13-.03.27-.05v-.11h.38v-.16h.27v-.11h.27v-.11c.15-.07.27-.06.43-.05v-.11h.38v-.11c.15-.07.27-.06.43-.05v-.11h.38v-.11c.19-.06.34-.06.54-.05v-.11h.54v-.11c.14-.07.23-.06.38-.06.05,0,.1,0,.15,0q.06,0,.11,0v-.11h.7v-.11c.2-.07.37-.06.58-.06.04,0,.08,0,.11,0,.09,0,.19,0,.28,0v-.11h1.29v-.11c.4-.06.8-.06,1.2-.06Zm-3.2,11.22v.11q-.67.03-1.35.05v.11h-.81v.11c-.23.02-.46.04-.7.05v.11h-.54v.11q-.24.03-.49.05v.11h-.43v.11c-.14.02-.28.04-.43.05v.11h-.38v.11c-.14.02-.28.04-.43.05v.11h-.38v.16h-.27v.11h-.38l-.05.11q-.14.03-.27.05v.11h-.27v.11q-.13.03-.27.05v.11h-.38v.16h-.27v.11h-.27v.16h-.27v.11h-.27v.16h-.27v.11h-.27v.16h-.16v.11h-.27v.11c-.07.02-.14.04-.22.05v.11h-.27l-.05.11q-.11.03-.22.05v.11h-.16v.11c-.09.02-.18.04-.27.05v.11h-.16v.11c-.07.02-.14.04-.22.05v.11q-.06,0-.12-.01-.15,0-.24.08-.07.08-.06.2h-.27v.16h-.16v.11h-.22q-.1.07-.16.16v.11h-.27v.16h-.16v.11h-.22q-.1.07-.16.16v.11h-.27v.16h-.11v.11h-.27v.16h-.16v.11h-.16v.11q-.11.03-.22.05v.11h-.16v.16h-.16v.11h-.22v.16h-.16v.11h-.16v.11c-.07.02-.14.04-.22.05v.11h-.16v.16h-.11v.11h-.16v.11c-.05.02-.11.04-.16.05.02.07.04.14.05.22h.11v.16h.16v.16h.11v.22h.16v.16h.11v.11q.07.09.16.16h.11v.27h.16v.11h.11v.16h.16v-.11h.11v-.16h.16v-.11h.11v-.16h.16v-.11h.11v-.16h.16v-.11c.07-.02.14-.04.22-.05v-.11h.16v-.16h.11v-.11h.16v-.16h.11v-.11h.16v-.16h.11v-.11h.16v-.16h.16v-.11h.22v-.16h.16v-.11h.11q.09-.07.16-.16v-.11h.16v-.11c.07-.02.14-.04.22-.05v-.11h.16v-.16h.11v-.11h.16v-.11c.09-.02.18-.04.27-.05v-.11h.11q.09-.07.16-.16v-.11h.27v-.16h.11v-.11h.16v-.11c.09-.02.18-.04.27-.05v-.11h.11l.05-.11q.11-.03.22-.05v-.11h.16v-.16h.27v-.11h.11q.09-.07.16-.16v-.11h.27v-.16h.27v-.11h.16v-.11c.07-.02.14-.04.22-.05v-.11h.27v-.16h.16v-.11h.27v-.16h.27v-.11h.27v-.16h.16v-.11h.27v-.11q.13-.03.27-.05v-.11h.27v-.11q.13-.03.27-.05v-.11h.27v-.11q.19-.03.38-.05v-.11h.27v-.16h.27v-.11h.38l.05-.11q.14-.03.27-.05v-.11h.38v-.16h.27v-.11h.43v-.11c.16-.02.32-.04.49-.05v-.11h.43v-.16h.43v-.11h.54v-.11c.21-.02.43-.04.65-.05v-.11h.7v-.11c.34-.02.68-.04,1.02-.05v-.11h1.24v-.11c-.41-.02-.82-.04-1.24-.05v-.11h-1.73Z"/>
  </g>
</svg>