<svg width="88" height="88" viewBox="0 0 88 88" fill="none" xmlns="http://www.w3.org/2000/svg">
<circle cx="44" cy="44" r="41.7264" fill="#FFCE51" stroke="white" stroke-width="3.45275"/>
<g clip-path="url(#clip0_14_29350)">
<path d="M58.4786 25.8652L57.5953 26.3279C57.5953 26.3279 56.0864 27.1323 54.3146 28.2206C52.5428 29.3089 50.4977 30.6075 49.1833 31.9219C47.1907 33.9145 45.503 36.4434 44.6829 37.6L44.3884 37.3056L43.4211 36.3803L42.4537 37.3056L39.1309 40.6704L38.1635 41.6378L39.1309 42.5631L40.1824 43.6146L30.761 53.0361L27.9009 54.4661L27.6906 54.8867L24.9987 60.3125L24.5781 61.1537L25.2511 61.8687L26.597 63.1725L27.27 63.8455L28.1532 63.4249L33.9575 60.5228L35.3876 57.6627L44.809 48.2412L45.8605 49.2927L46.7859 50.2601L47.7532 49.2927L51.1181 45.97L52.0434 45.0026L51.1181 44.0352L50.8236 43.7408C51.9382 42.9627 54.3409 41.4012 56.5017 39.2403C59.3145 36.4276 62.0957 30.8283 62.0957 30.8283L62.5584 29.9451L61.8854 29.23L59.1936 26.5382L58.4786 25.8652ZM57.9738 29.188L59.2357 30.4498C58.5627 31.6643 56.3861 35.4865 54.567 37.3056C52.2747 39.5979 48.0477 42.5631 48.0477 42.5631L46.7017 43.4464L47.8374 44.624L48.2159 45.0026L46.7859 46.4326L46.6597 46.3485L45.7344 45.3811L43.0425 42.6893L42.0751 41.764L41.991 41.6378L43.4211 40.2077L44.9352 41.7219L45.8605 40.376C45.8605 40.376 49.0624 35.9123 51.1181 33.8567C52.0486 32.9261 54.0412 31.5381 55.7447 30.4918C56.9644 29.7453 57.4586 29.4719 57.9738 29.188ZM42.0751 45.5914L42.8322 46.3485L33.3266 55.8541L33.2004 56.0223L33.0743 56.2326L31.9386 58.5039L27.9429 60.4807L29.9198 56.485L32.191 55.3494L32.4013 55.2232L32.5695 55.097L42.0751 45.5914Z" fill="black"/>
</g>
<defs>
<clipPath id="clip0_14_29350">
<rect width="37.9803" height="37.9803" fill="white" transform="translate(24.5781 25.8652)"/>
</clipPath>
</defs>
</svg>
